<?xml version="1.0" encoding="UTF-8"?>
<svg width="512" height="512" viewBox="0 0 512 512" fill="none" xmlns="http://www.w3.org/2000/svg">
  <rect width="512" height="512" rx="128" fill="url(#gradient)" />
  <path
    d="M256 133.253v277m0-277C231.832 116.477 197.246 106 160.5 106S89.168 116.477 64 133.253v277C89.168 393.477 122.754 383 159.5 383s71.332 10.477 96.5 26.753m0-277C280.168 116.477 313.754 106 350.5 106c37.747 0 71.332 10.477 96.5 26.753v277C421.832 393.477 388.247 383 351.5 383c-37.746 0-71.332 10.477-96.5 26.753"
    stroke="white"
    stroke-width="32"
    stroke-linecap="round"
    stroke-linejoin="round"
  />
  <defs>
    <linearGradient id="gradient" x1="0" y1="0" x2="512" y2="512" gradientUnits="userSpaceOnUse">
      <stop offset="0%" stop-color="#9333EA" />
      <stop offset="100%" stop-color="#7C3AED" />
    </linearGradient>
  </defs>
</svg> 